<svg width="23" height="24" viewBox="0 0 23 24" fill="none" xmlns="http://www.w3.org/2000/svg">
<path d="M11.6766 2.61111C6.48624 2.61111 2.2832 6.82355 2.2832 12.0139C2.2832 17.2042 6.48624 21.4167 11.6766 21.4167C16.8763 21.4167 21.0888 17.2042 21.0888 12.0139C21.0888 6.82355 16.8763 2.61111 11.6766 2.61111ZM18.1927 8.25277H15.4189C15.1241 7.08834 14.6884 5.96424 14.1213 4.90538C15.8365 5.49588 17.2817 6.68413 18.1927 8.25277ZM11.686 4.52927C12.4664 5.65761 13.0776 6.90818 13.4819 8.25277H9.89005C10.2944 6.90818 10.9056 5.65761 11.686 4.52927ZM4.40823 13.8944C4.25779 13.2927 4.16376 12.6627 4.16376 12.0139C4.16376 11.3651 4.25779 10.7351 4.40823 10.1333H7.58637C7.51115 10.7539 7.45473 11.3745 7.45473 12.0139C7.45473 12.6533 7.51115 13.2739 7.58637 13.8944H4.40823ZM5.17926 15.775H7.95308C8.25397 16.9503 8.68649 18.0787 9.25066 19.1224C7.53423 18.5341 6.08827 17.3453 5.17926 15.775ZM7.95308 8.25277H5.17926C6.08827 6.68246 7.53423 5.49363 9.25066 4.90538C8.68356 5.96424 8.24781 7.08834 7.95308 8.25277ZM11.686 19.4985C10.9056 18.3702 10.2944 17.1196 9.89005 15.775H13.4819C13.0776 17.1196 12.4664 18.3702 11.686 19.4985ZM13.8862 13.8944H9.48573C9.40111 13.2739 9.33529 12.6533 9.33529 12.0139C9.33529 11.3745 9.40111 10.7445 9.48573 10.1333H13.8862C13.9709 10.7445 14.0367 11.3745 14.0367 12.0139C14.0367 12.6533 13.9709 13.2739 13.8862 13.8944ZM14.1213 19.1224C14.6855 18.0787 15.118 16.9503 15.4189 15.775H18.1927C17.2817 17.3436 15.8365 18.5319 14.1213 19.1224ZM15.7856 13.8944C15.8608 13.2739 15.9172 12.6533 15.9172 12.0139C15.9172 11.3745 15.8608 10.7539 15.7856 10.1333H18.9637C19.1142 10.7351 19.2082 11.3651 19.2082 12.0139C19.2082 12.6627 19.1142 13.2927 18.9637 13.8944H15.7856Z" fill="white"/>
</svg>
