<svg width="631" height="697" viewBox="0 0 631 697" fill="none" xmlns="http://www.w3.org/2000/svg">
<path fill-rule="evenodd" clip-rule="evenodd" d="M314.715 696.541C252.676 698.339 190.738 693.019 137.012 678.725C78.9444 663.275 14.9238 643.5 2.05437 613.356C-10.6211 583.665 40.3694 557.213 74.0144 531.164C100.465 510.686 136.551 495.067 175.321 479.21C219.261 461.238 255.84 434.171 314.715 432.717C373.947 431.253 414.367 458.298 465.503 472.041C524.264 487.834 602.982 491.968 636.313 519.148C671.516 547.854 672.87 585.845 641.345 615.43C611.138 643.78 537.385 653.827 476.77 668.879C424.831 681.777 373.704 694.831 314.715 696.541Z" fill="#212121" fill-opacity="0.5"/>
<rect x="220.434" y="636.75" width="145.354" height="13.4691" rx="6.73455" fill="#474747" stroke="#333333" stroke-width="1.12243"/>
<rect x="250.459" y="637.531" width="84.7431" height="11.7855" fill="#1F1F1F"/>
<path d="M167.661 513.284L167.679 513.827L170.485 599.412L170.503 599.951L169.966 599.99C163.562 600.461 149.235 597.735 142.241 583.245L141.914 582.546L141.863 582.435V513.284H167.661Z" fill="#2C2C2C" stroke="#333333" stroke-width="1.12243"/>
<path d="M153.088 517.493L149.802 520.006C149.008 520.613 148.914 521.773 149.6 522.499L152.076 525.121C152.655 525.734 152.692 526.681 152.161 527.337L149.301 530.87C148.746 531.555 148.814 532.552 149.455 533.155L151.95 535.503C152.592 536.107 152.659 537.104 152.105 537.789L149.301 541.253C148.746 541.937 148.814 542.934 149.455 543.538L151.975 545.91C152.606 546.504 152.684 547.48 152.154 548.165L149.315 551.839C148.759 552.558 148.875 553.589 149.577 554.168L151.854 556.043C152.546 556.612 152.67 557.623 152.138 558.343L149.267 562.228C148.735 562.948 148.859 563.959 149.551 564.528L152.118 566.642C152.693 567.116 152.889 567.912 152.598 568.598L150.423 573.74C150.166 574.347 150.287 575.048 150.732 575.534L152.333 577.28C152.79 577.78 152.904 578.504 152.622 579.12L150.467 583.823C150.184 584.438 150.298 585.163 150.756 585.662L152.231 587.272C152.738 587.825 152.818 588.647 152.427 589.287L150.001 593.257" stroke="#333333" stroke-width="1.12243"/>
<path d="M418 513.284L417.982 513.827L415.176 599.412L415.158 599.951L415.695 599.99C422.099 600.461 436.426 597.735 443.42 583.245L443.747 582.546L443.798 582.435V513.284H418Z" fill="#2C2C2C" stroke="#333333" stroke-width="1.12243"/>
<path d="M432.573 517.493L435.859 520.006C436.653 520.613 436.747 521.773 436.061 522.499L433.585 525.121C433.006 525.734 432.969 526.681 433.5 527.337L436.361 530.87C436.915 531.555 436.848 532.552 436.206 533.155L433.711 535.503C433.07 536.107 433.002 537.104 433.557 537.789L436.361 541.253C436.915 541.937 436.848 542.934 436.206 543.538L433.686 545.91C433.055 546.504 432.978 547.48 433.507 548.165L436.346 551.839C436.902 552.558 436.786 553.589 436.084 554.168L433.807 556.043C433.115 556.612 432.991 557.623 433.523 558.343L436.394 562.228C436.926 562.948 436.802 563.959 436.11 564.528L433.543 566.642C432.968 567.116 432.773 567.912 433.063 568.598L435.239 573.74C435.495 574.347 435.374 575.048 434.929 575.534L433.328 577.28C432.871 577.78 432.757 578.504 433.039 579.12L435.195 583.823C435.477 584.438 435.363 585.163 434.905 585.662L433.43 587.272C432.923 587.825 432.843 588.647 433.234 589.287L435.66 593.257" stroke="#333333" stroke-width="1.12243"/>
<path d="M426.119 516.016L426.602 516.085C429.74 516.533 435.668 516.639 441.107 514.921L441.632 514.748C446.557 513.073 448.568 507.823 448.568 502.877V434.062C448.568 432.058 448.3 429.807 446.782 428.197L446.508 427.916C443.572 425.001 437.486 421.921 426.672 422.088L426.119 422.096V516.016Z" fill="#C2C4C7" stroke="#333333" stroke-width="1.12243"/>
<path d="M426.401 422.086V507.872L426.876 507.946C428.419 508.187 430.929 508.329 433.492 507.982C436.042 507.636 438.737 506.794 440.549 504.982L440.697 504.833L440.712 504.624C441.321 495.725 441.939 481.021 441.814 465.815C441.69 450.62 440.826 434.88 438.456 423.932L438.41 423.72L438.233 423.594C437.138 422.812 435.835 422.445 434.07 422.265C432.316 422.086 430.037 422.086 426.963 422.086H426.401Z" fill="#1AA160" stroke="#333333" stroke-width="1.12243"/>
<path d="M427.523 472.535H440.992L440.15 503.963C436.783 506.208 435.38 507.891 427.523 506.769V472.535Z" fill="#0D703F"/>
<path d="M416.729 407.214L416.841 407.628L417.316 409.41C422.226 428.247 427.129 460.048 428.75 494.667C430.397 529.841 428.658 567.983 420.059 598.424L419.645 599.867C417.874 605.931 412.522 611.093 404.676 615.412C396.817 619.739 386.365 623.272 374.228 626.037C349.949 631.568 318.818 634.052 287.928 633.615C257.038 633.178 226.348 629.821 202.952 623.648C191.257 620.563 181.352 616.765 174.152 612.258C167.189 607.898 162.665 602.815 161.607 596.988L161.516 596.422C158.146 572.646 148.592 491.952 161.517 410.493L161.59 410.036L162.052 410.021C227.163 407.775 358.683 407.214 416.3 407.214H416.729Z" fill="url(#paint0_linear_21_1259)" stroke="#333333" stroke-width="1.12243"/>
<path d="M344.858 534.936C345.731 534.994 346.427 535.721 346.427 536.616V623.562C346.427 624.492 345.673 625.245 344.743 625.245H243.128C242.277 625.245 241.569 624.612 241.459 623.786L241.444 623.618L238.711 540.516C238.68 539.589 239.405 538.812 240.332 538.778L344.682 534.934L344.858 534.936Z" fill="black" stroke="black" stroke-width="1.12243"/>
<path d="M161.18 276.67C162.283 275.978 163.752 276.766 163.752 278.1V421.596C163.752 422.249 163.374 422.839 162.792 423.116L162.672 423.168L157.644 425.101C156.532 425.529 155.34 424.699 155.355 423.508L157.246 280.372L157.26 280.176C157.319 279.722 157.562 279.308 157.936 279.035L161.074 276.741L161.18 276.67Z" fill="#808080" stroke="#333333" stroke-width="1.12243"/>
<path d="M182.5 365.015C168.502 374.072 141.686 371.727 132.109 356.121L119.207 340.942L122.622 309.066L159.431 306.789C168.068 316.157 195.192 333.129 186.451 359.732C185.746 361.878 184.396 363.788 182.5 365.015Z" fill="#A9623B" stroke="#A55528" stroke-width="0.758942"/>
<path d="M134.012 356.5C115.049 366.343 100.994 338.006 115.743 323.652C116.939 322.488 118.621 321.878 120.241 322.275C124.763 323.385 130.024 327.921 125.284 342.459L134.012 356.5Z" fill="#161416"/>
<path d="M182.579 310.584C179.543 307.042 171.954 299.882 165.882 299.579L158.293 307.548C160.823 310.963 167.4 316.655 175.369 322.347L182.579 310.584Z" fill="#161416"/>
<path d="M168.919 291.608C146.816 275.304 107.07 294.98 115.087 320.244C115.826 322.572 117.978 324.145 120.415 324.308C140.81 325.671 168.919 312.99 168.919 291.608Z" fill="#161416"/>
<path d="M155.638 328.039L162.468 317.793" stroke="black" stroke-width="2.27683"/>
<path d="M157.151 347.494L163.23 341.978" stroke="black" stroke-width="2.27683"/>
<path d="M162.848 359.535C164.062 354.677 170.437 349.415 173.473 347.392" stroke="black" stroke-width="2.27683"/>
<path d="M155.808 362.377L145.405 354.513" stroke="white" stroke-width="0.758942"/>
<path d="M154.848 359.145L146.645 352.891" stroke="white" stroke-width="0.758942"/>
<path d="M154.344 355.423L147.952 350.55" stroke="white" stroke-width="0.758942"/>
<path d="M178.273 341.217L172.373 329.587" stroke="white" stroke-width="0.758942"/>
<path d="M175.262 339.698L170.558 330.518" stroke="white" stroke-width="0.758942"/>
<path d="M171.686 338.545L168.02 331.392" stroke="white" stroke-width="0.758942"/>
<path d="M132.542 343.569L143.066 337.175" stroke="black" stroke-width="2.27683"/>
<ellipse cx="161.709" cy="328.798" rx="3.03577" ry="2.6563" transform="rotate(-21.681 161.709 328.798)" fill="black"/>
<ellipse cx="142.744" cy="344.91" rx="3.03577" ry="2.6563" transform="rotate(-21.681 142.744 344.91)" fill="black"/>
<path d="M422.798 276.67C421.695 275.978 420.226 276.766 420.226 278.1V421.596C420.226 422.249 420.603 422.839 421.186 423.116L421.306 423.168L426.334 425.101C427.446 425.529 428.638 424.699 428.622 423.508L426.731 280.372L426.718 280.176C426.658 279.722 426.416 279.308 426.042 279.035L422.903 276.741L422.798 276.67Z" fill="#808080" stroke="#333333" stroke-width="1.12243"/>
<path d="M425.277 470.29C428.645 485.442 396.935 505.085 380.379 465.239L425.277 470.29Z" fill="#0D703F"/>
<path d="M421.636 411.435C418.971 412.941 415.803 415.518 411.746 418.745C407.671 421.986 402.652 425.924 396.234 430.21L395.026 431.026C388.984 435.161 382.991 440.138 381.016 447.352L380.875 447.886C378.017 459.093 382.005 469.407 389.446 475.367C396.898 481.335 407.769 482.902 418.572 476.72L419.086 476.42C422.319 474.495 424.989 471.739 426.833 468.469L427.19 467.809C433.237 456.165 437.853 434.437 422.377 411.609L422.087 411.18L421.636 411.435Z" fill="#3C3C3E" stroke="#333333" stroke-width="1.12243"/>
<path d="M406.194 439.143C410.216 434.559 419.891 423.372 421.911 414.169C437.907 431.847 436.222 482.917 400.865 479.269L406.194 439.143Z" fill="#1D1D1D"/>
<circle cx="20.2037" cy="20.2037" r="20.7649" transform="matrix(-1 0 0 1 424.438 435.214)" fill="#ECECEC" stroke="#333333" stroke-width="1.12243"/>
<path fill-rule="evenodd" clip-rule="evenodd" d="M404.48 474.218C414.766 474.104 423.07 465.73 423.07 455.417C423.07 445.104 414.766 436.731 404.48 436.617V474.218Z" fill="#DBDBDB"/>
<path d="M225.204 625.745C219.217 599.555 213.981 543.808 225.204 531.462L231.378 536.512L235.868 625.745H225.204Z" fill="#1D4D70"/>
<path d="M225.204 625.745C219.217 599.555 213.981 543.808 225.204 531.462L231.378 536.512L235.868 625.745H225.204Z" fill="#0D703F"/>
<path d="M363.824 626.306C369.81 600.117 375.046 544.369 363.824 532.023L357.649 537.074L353.16 626.306H363.824Z" fill="#0D703F"/>
<path d="M242.321 631.7C243.251 631.7 244.005 632.453 244.005 633.383V651.904C244.005 652.833 243.251 653.587 242.321 653.587H232.78C231.851 653.587 231.097 652.833 231.097 651.904V633.383C231.097 632.454 231.851 631.7 232.78 631.7H242.321Z" fill="#D9D9D9" stroke="#333333" stroke-width="1.12243"/>
<path d="M238.673 633.603V651.562C238.673 652.182 239.175 652.684 239.795 652.684H242.04C242.66 652.684 243.163 652.182 243.163 651.562V633.603C243.163 632.983 242.66 632.481 242.04 632.481H239.795C239.175 632.481 238.673 632.983 238.673 633.603Z" fill="#9B9B9B"/>
<path d="M244.322 590.835C245.226 590.853 245.97 591.592 245.97 592.518V631.138C245.97 632.068 245.216 632.822 244.286 632.822H230.536C229.606 632.822 228.853 632.068 228.853 631.138V593.724C228.853 592.851 229.52 592.123 230.39 592.047L244.139 590.841L244.322 590.835Z" fill="#D9D9D9" stroke="#333333" stroke-width="1.12243"/>
<path d="M238.113 593.196V630.797C238.113 631.417 238.616 631.92 239.236 631.92H243.725C244.345 631.92 244.848 631.417 244.848 630.797V593.196C244.848 592.576 244.345 592.074 243.725 592.074H239.236C238.616 592.074 238.113 592.576 238.113 593.196Z" fill="#9B9B9B"/>
<path d="M225.766 534.422C225.766 533.3 226.843 532.493 227.92 532.806L249.807 539.168L249.939 539.212C250.586 539.46 251.02 540.083 251.021 540.784V592.697C251.02 593.626 250.267 594.38 249.337 594.38H227.449C226.52 594.38 225.766 593.626 225.766 592.697V534.422Z" fill="#FBAA03" stroke="#333333" stroke-width="1.12243"/>
<path d="M237.552 592.074V537.484C237.552 536.725 238.288 536.185 239.012 536.413L249.113 539.596C249.581 539.743 249.898 540.177 249.898 540.667V592.074C249.898 592.694 249.396 593.197 248.776 593.197H238.674C238.054 593.197 237.552 592.694 237.552 592.074Z" fill="#CB8806"/>
<path d="M346.147 631.7C345.218 631.7 344.464 632.453 344.464 633.383V651.904C344.464 652.833 345.218 653.587 346.147 653.587H355.688C356.618 653.587 357.372 652.833 357.372 651.904V633.383C357.372 632.454 356.618 631.7 355.688 631.7H346.147Z" fill="#D9D9D9" stroke="#333333" stroke-width="1.12243"/>
<path d="M349.795 633.603V651.562C349.795 652.182 349.292 652.684 348.672 652.684H346.428C345.808 652.684 345.305 652.182 345.305 651.562V633.603C345.305 632.983 345.808 632.481 346.428 632.481H348.672C349.292 632.481 349.795 632.983 349.795 633.603Z" fill="#9B9B9B"/>
<path d="M344.146 590.835C343.243 590.853 342.499 591.592 342.499 592.518V631.138C342.499 632.068 343.253 632.822 344.183 632.822H357.933C358.862 632.822 359.616 632.068 359.616 631.138V593.724C359.616 592.851 358.949 592.123 358.079 592.047L344.33 590.841L344.146 590.835Z" fill="#D9D9D9" stroke="#333333" stroke-width="1.12243"/>
<path d="M350.355 593.196V630.797C350.355 631.417 349.853 631.92 349.233 631.92H344.743C344.123 631.92 343.621 631.417 343.621 630.797V593.196C343.621 592.576 344.123 592.074 344.743 592.074H349.233C349.853 592.074 350.355 592.576 350.355 593.196Z" fill="#9B9B9B"/>
<path d="M362.702 534.422C362.702 533.3 361.625 532.493 360.548 532.806L338.661 539.168L338.528 539.212C337.882 539.46 337.447 540.083 337.447 540.784V592.697C337.447 593.626 338.201 594.38 339.131 594.38H361.019C361.948 594.38 362.702 593.626 362.702 592.697V534.422Z" fill="#FBAA03" stroke="#333333" stroke-width="1.12243"/>
<path d="M350.916 592.074V537.484C350.916 536.725 350.18 536.185 349.456 536.413L339.354 539.596C338.887 539.743 338.569 540.177 338.569 540.667V592.074C338.569 592.694 339.072 593.197 339.692 593.197H349.794C350.413 593.197 350.916 592.694 350.916 592.074Z" fill="#CB8806"/>
<path d="M325.381 565.476C326.621 565.476 327.626 566.481 327.626 567.721V661.969C327.626 665.976 327.289 670.187 325.341 673.821L325.147 674.171C319.34 684.341 307.215 689.921 294.825 690.396C282.623 690.863 270.012 686.385 262.74 676.279L262.398 675.794C259.213 671.18 258.673 665.412 258.822 659.965L261.358 567.659L261.376 567.435C261.517 566.327 262.463 565.476 263.603 565.476H325.381Z" fill="#383838" stroke="#333333" stroke-width="1.12243"/>
<path d="M271.506 571.088L269.868 575.767C269.682 576.3 269.921 576.889 270.426 577.142L272.536 578.197C273.25 578.554 273.374 579.52 272.773 580.046L270.507 582.029C269.996 582.476 269.996 583.271 270.507 583.718L273.203 586.077C273.663 586.479 273.716 587.176 273.322 587.644L270.307 591.225C269.892 591.718 269.976 592.459 270.492 592.846L272.996 594.724C273.543 595.134 273.6 595.933 273.117 596.416L270.39 599.142C269.931 599.601 269.956 600.353 270.445 600.78L273.156 603.152C273.634 603.571 273.67 604.303 273.234 604.766L270.313 607.87C269.887 608.322 269.91 609.034 270.362 609.458L273.255 612.17C273.691 612.578 273.731 613.256 273.346 613.712L270.121 617.542C269.783 617.944 269.768 618.527 270.087 618.945L273.513 623.442C273.82 623.844 273.82 624.401 273.513 624.803L270.227 629.116C269.85 629.611 269.948 630.32 270.447 630.694L273.213 632.768C273.677 633.116 273.799 633.76 273.495 634.254L270.022 639.898C269.743 640.352 269.821 640.94 270.21 641.305L273.406 644.301C273.776 644.647 273.867 645.198 273.631 645.645L271.747 649.203C271.594 649.492 271.575 649.833 271.694 650.137L273.855 655.66C273.968 655.948 273.957 656.27 273.824 656.55L271.755 660.918C271.599 661.247 271.612 661.632 271.791 661.949L273.747 665.427C273.926 665.744 273.939 666.128 273.783 666.458L271.728 670.796C271.587 671.093 271.584 671.437 271.719 671.737L273.834 676.437C273.96 676.718 273.966 677.038 273.849 677.323L271.506 683.05" stroke="#232323" stroke-width="1.12243"/>
<path d="M282.168 571.088L280.531 575.767C280.344 576.3 280.583 576.889 281.088 577.142L283.198 578.197C283.912 578.554 284.036 579.52 283.436 580.046L281.169 582.029C280.658 582.476 280.658 583.271 281.169 583.718L283.865 586.077C284.325 586.479 284.378 587.176 283.984 587.644L280.969 591.225C280.554 591.718 280.638 592.459 281.154 592.846L283.658 594.724C284.205 595.134 284.262 595.933 283.779 596.416L281.052 599.142C280.593 599.601 280.618 600.353 281.107 600.78L283.818 603.152C284.296 603.571 284.332 604.303 283.896 604.766L280.975 607.87C280.549 608.322 280.572 609.034 281.025 609.458L283.917 612.17C284.353 612.578 284.393 613.256 284.008 613.712L280.783 617.542C280.445 617.944 280.431 618.527 280.749 618.945L284.176 623.442C284.482 623.844 284.482 624.401 284.176 624.803L280.89 629.116C280.512 629.611 280.61 630.32 281.109 630.694L283.875 632.768C284.339 633.116 284.461 633.76 284.157 634.254L280.684 639.898C280.405 640.352 280.484 640.94 280.873 641.305L284.068 644.301C284.438 644.647 284.53 645.198 284.293 645.645L282.409 649.203C282.256 649.492 282.237 649.833 282.356 650.137L284.517 655.66C284.63 655.948 284.619 656.27 284.486 656.55L282.417 660.918C282.261 661.247 282.274 661.632 282.453 661.949L284.409 665.427C284.588 665.744 284.601 666.128 284.445 666.458L282.39 670.796C282.249 671.093 282.246 671.437 282.381 671.737L284.496 676.437C284.622 676.718 284.628 677.038 284.511 677.323L282.168 683.05" stroke="#232323" stroke-width="1.12243"/>
<path d="M292.831 571.088L291.194 575.767C291.007 576.3 291.246 576.889 291.751 577.142L293.862 578.197C294.575 578.554 294.699 579.52 294.099 580.046L291.833 582.029C291.322 582.476 291.322 583.271 291.833 583.718L294.528 586.077C294.988 586.479 295.041 587.176 294.647 587.644L291.632 591.225C291.217 591.718 291.301 592.459 291.817 592.846L294.322 594.724C294.868 595.134 294.925 595.933 294.442 596.416L291.716 599.142C291.256 599.601 291.281 600.353 291.77 600.78L294.481 603.152C294.959 603.571 294.995 604.303 294.559 604.766L291.638 607.87C291.213 608.322 291.235 609.034 291.688 609.458L294.581 612.17C295.016 612.578 295.056 613.256 294.671 613.712L291.446 617.542C291.108 617.944 291.094 618.527 291.412 618.945L294.839 623.442C295.145 623.844 295.145 624.401 294.839 624.803L291.553 629.116C291.175 629.611 291.273 630.32 291.772 630.694L294.538 632.768C295.002 633.116 295.124 633.76 294.82 634.254L291.347 639.898C291.068 640.352 291.147 640.94 291.536 641.305L294.731 644.301C295.101 644.647 295.193 645.198 294.956 645.645L293.072 649.203C292.919 649.492 292.9 649.833 293.019 650.137L295.18 655.66C295.293 655.948 295.282 656.27 295.149 656.55L293.08 660.918C292.924 661.247 292.938 661.632 293.116 661.949L295.072 665.427C295.251 665.744 295.264 666.128 295.108 666.458L293.053 670.796C292.913 671.093 292.909 671.437 293.044 671.737L295.159 676.437C295.285 676.718 295.291 677.038 295.174 677.323L292.831 683.05" stroke="#232323" stroke-width="1.12243"/>
<path d="M303.494 571.088L301.856 575.767C301.669 576.3 301.908 576.889 302.413 577.142L304.524 578.197C305.237 578.554 305.361 579.52 304.761 580.046L302.495 582.029C301.984 582.476 301.984 583.271 302.495 583.718L305.19 586.077C305.65 586.479 305.704 587.176 305.31 587.644L302.294 591.225C301.879 591.718 301.964 592.459 302.479 592.846L304.984 594.724C305.53 595.134 305.587 595.933 305.104 596.416L302.378 599.142C301.919 599.601 301.944 600.353 302.432 600.78L305.143 603.152C305.622 603.571 305.657 604.303 305.221 604.766L302.3 607.87C301.875 608.322 301.897 609.034 302.35 609.458L305.243 612.17C305.678 612.578 305.718 613.256 305.334 613.712L302.109 617.542C301.77 617.944 301.756 618.527 302.074 618.945L305.501 623.442C305.807 623.844 305.807 624.401 305.501 624.803L302.215 629.116C301.837 629.611 301.935 630.32 302.434 630.694L305.2 632.768C305.664 633.116 305.786 633.76 305.482 634.254L302.01 639.898C301.73 640.352 301.809 640.94 302.198 641.305L305.394 644.301C305.763 644.647 305.855 645.198 305.618 645.645L303.734 649.203C303.581 649.492 303.562 649.833 303.681 650.137L305.842 655.66C305.955 655.948 305.944 656.27 305.811 656.55L303.742 660.918C303.586 661.247 303.6 661.632 303.778 661.949L305.734 665.427C305.913 665.744 305.926 666.128 305.77 666.458L303.715 670.796C303.575 671.093 303.571 671.437 303.706 671.737L305.821 676.437C305.947 676.718 305.953 677.038 305.837 677.323L303.494 683.05" stroke="#232323" stroke-width="1.12243"/>
<path d="M314.158 571.088L312.52 575.767C312.333 576.3 312.572 576.889 313.077 577.142L315.188 578.197C315.901 578.554 316.025 579.52 315.425 580.046L313.159 582.029C312.648 582.476 312.648 583.271 313.159 583.718L315.854 586.077C316.314 586.479 316.368 587.176 315.974 587.644L312.958 591.225C312.543 591.718 312.628 592.459 313.143 592.846L315.648 594.724C316.194 595.134 316.251 595.933 315.768 596.416L313.042 599.142C312.583 599.601 312.608 600.353 313.096 600.78L315.807 603.152C316.286 603.571 316.321 604.303 315.885 604.766L312.964 607.87C312.539 608.322 312.561 609.034 313.014 609.458L315.907 612.17C316.342 612.578 316.382 613.256 315.998 613.712L312.773 617.542C312.434 617.944 312.42 618.527 312.738 618.945L316.165 623.442C316.471 623.844 316.471 624.401 316.165 624.803L312.879 629.116C312.501 629.611 312.6 630.32 313.098 630.694L315.864 632.768C316.328 633.116 316.45 633.76 316.146 634.254L312.674 639.898C312.394 640.352 312.473 640.94 312.862 641.305L316.058 644.301C316.427 644.647 316.519 645.198 316.282 645.645L314.398 649.203C314.246 649.492 314.226 649.833 314.345 650.137L316.506 655.66C316.619 655.948 316.608 656.27 316.476 656.55L314.406 660.918C314.25 661.247 314.264 661.632 314.442 661.949L316.398 665.427C316.577 665.744 316.59 666.128 316.435 666.458L314.379 670.796C314.239 671.093 314.235 671.437 314.37 671.737L316.485 676.437C316.612 676.718 316.617 677.038 316.501 677.323L314.158 683.05" stroke="#232323" stroke-width="1.12243"/>
<path d="M332.396 497.289H252.703V462.595C252.703 456.734 253.204 450.673 255.814 445.301L256.24 444.451C265.312 426.799 283.703 421.87 300.066 424.852C308.381 426.367 316.212 429.927 322.091 434.933C327.97 439.939 331.923 446.419 332.395 453.759L332.396 453.776V497.289Z" fill="#27B16E" stroke="#333333" stroke-width="1.12243"/>
<path d="M287.445 483.367C306.465 481.553 325.979 484.163 341.901 492.598C357.842 501.041 370.158 515.311 374.755 536.738L374.964 537.713L374.022 537.386C365.841 534.543 358.946 534.537 353.209 536.219C347.467 537.902 342.843 541.289 339.231 545.298C335.618 549.309 333.028 553.932 331.359 558.058C329.684 562.201 328.962 565.782 329.028 567.703L329.039 568.022L328.77 568.195C318.544 574.727 305.094 577.334 291.976 577.016C278.856 576.699 265.991 573.456 256.913 568.208L256.633 568.046V567.723C256.633 553.386 248.516 544.228 238.845 539.427C234.003 537.023 228.779 535.718 224.011 535.411C219.232 535.104 214.96 535.802 211.995 537.352L211.11 537.815L211.176 536.819C212.104 522.546 221.729 510.08 235.785 500.755C249.849 491.424 268.425 485.181 287.445 483.367Z" fill="#C9C8CD" stroke="#333333" stroke-width="1.12243"/>
<path d="M285.901 484.314C320.384 480.936 357.195 491.83 370.8 526.266L371.122 527.083L370.246 527.033C353.171 526.061 340.11 533.082 331.882 541.202C327.765 545.264 324.87 549.591 323.288 553.309C322.497 555.169 322.042 556.86 321.918 558.278C321.793 559.705 322.007 560.797 322.482 561.521L322.795 561.996L322.315 562.301C304.168 573.894 279.452 571.614 263.366 562.315L263.086 562.153V561.829C263.086 549.182 253.703 539.621 242.804 533.906C237.367 531.055 231.594 529.187 226.514 528.385C221.405 527.579 217.098 527.868 214.521 529.215L213.453 529.773L213.713 528.596C216.286 516.947 225.765 506.719 238.826 498.999C251.9 491.27 268.643 486.005 285.901 484.314Z" fill="#2CB774" stroke="#333333" stroke-width="1.12243"/>
<path d="M186.116 267.479C222.714 261.905 315.953 254.121 398.174 267.168L400.113 267.479L400.517 267.546L400.578 267.949L420.951 401.156L421.032 401.753C421.754 407.722 419.617 413.686 415.269 417.839L414.826 418.248L412.122 420.673C408.171 424.215 403.457 426.788 398.269 427.944L397.766 428.052C361.529 435.443 284.318 443.56 185.985 427.587L183.658 427.205C180.257 426.641 177.053 425.187 174.378 423.024L173.85 422.582L167.603 417.168C163.443 413.563 161.473 408.045 162.409 402.621L185.648 267.938L185.717 267.54L186.116 267.479Z" fill="#FFC456" stroke="#333333" stroke-width="1.12243"/>
<path d="M418.541 411.142C372.522 421.805 263.31 425.06 165.435 411.142C165.435 425.332 231.771 442.705 392.826 428.687C401.665 427.917 409.738 423.3 414.941 416.114L418.541 411.142Z" fill="#FCA70D"/>
<path d="M215.646 276.77C256.036 272.778 319.494 267.976 379.286 277.64L379.662 277.708C383.527 278.48 386.613 281.388 387.684 285.195L389.428 291.396L390.146 293.99C397.445 320.825 401.145 348.515 401.146 376.333V386.359C401.15 386.373 401.155 386.389 401.16 386.406C401.188 386.495 401.226 386.624 401.267 386.787C401.349 387.112 401.445 387.578 401.51 388.149C401.639 389.288 401.64 390.859 401.121 392.575C400.104 395.94 397.14 399.709 389.683 401.933L388.946 402.143C381.195 404.265 362.645 406.781 331.942 407.596C302.184 408.386 260.978 407.578 207.061 403.255L201.803 402.826C196.834 402.412 192.172 400.168 188.746 396.559L188.418 396.206C184.833 392.243 182.946 387.031 183.164 381.692L184.061 359.74L184.128 358.18C184.865 342.072 186.84 326.042 190.033 310.235L194.105 290.078L194.245 289.45C195.817 283.022 201.255 278.233 207.885 277.553L215.646 276.77Z" fill="#69C8FF" stroke="#333333" stroke-width="1.12243"/>
<path d="M336.605 397.673V435.274H249.617V397.673H336.605Z" fill="#F7BF5E" stroke="#333333" stroke-width="1.12243"/>
<path d="M226.792 510.456C222.589 511.945 219.01 516.544 215.277 525.114C214.882 526.019 215.817 527.026 216.793 526.877C230.783 524.736 264.063 539.303 263.411 561.446C263.395 561.961 263.711 562.44 264.2 562.6L268.888 564.124C269.745 564.403 270.563 563.622 270.287 562.764C265.326 547.379 250.893 518.355 227.473 510.457C227.252 510.382 227.011 510.379 226.792 510.456Z" fill="#0D703F"/>
<path d="M295.076 569.344L293.953 492.738V480.953C325.1 487.687 355.125 492.738 369.997 526.411C352.6 522.483 318.927 542.406 320.611 561.487C317.524 564.293 309.667 568.502 295.076 569.344Z" fill="#19A05F"/>
<path d="M357.43 509.126C361.633 510.615 365.212 515.214 368.945 523.784C369.339 524.689 368.404 525.696 367.428 525.547C353.439 523.406 320.159 537.973 320.811 560.116C320.826 560.631 320.511 561.111 320.021 561.27L315.333 562.795C314.476 563.073 313.659 562.292 313.935 561.434C318.896 546.049 333.329 517.025 356.749 509.127C356.97 509.052 357.21 509.049 357.43 509.126Z" fill="#0D703F"/>
<path d="M263.431 447.14C274.915 423.883 309.874 421.376 322.023 447.152L322.427 448.04C326.398 457.125 326.53 468.101 321.12 476.466L320.849 476.875C315.239 485.179 305.681 491.29 295.553 492.54C285.552 493.775 275.018 490.265 267.233 479.525L266.865 479.008C260.518 469.96 258.418 457.765 263.163 447.693L263.431 447.14Z" fill="#999999" stroke="#333333" stroke-width="1.12243"/>
<circle cx="24.6934" cy="24.6934" r="25.2546" transform="matrix(-1 0 0 1 317.524 438.642)" fill="#ECECEC" stroke="#333333" stroke-width="1.12243"/>
<path fill-rule="evenodd" clip-rule="evenodd" d="M293.673 486.826C306.405 486.684 316.683 476.319 316.683 463.553C316.683 450.788 306.405 440.422 293.673 440.281V486.826Z" fill="#DBDBDB"/>
<path d="M370.558 268.314C347.131 268.762 287.63 269.383 230.69 268.441C229.41 268.42 229.182 266.726 230.423 266.411C270.694 256.209 336.126 254.011 370.558 268.314Z" fill="#F5A917"/>
<path d="M288.219 212.193C312.144 211.772 336.484 213.527 358.364 217.78C380.237 222.032 399.688 228.786 413.807 238.387L414.299 238.727C424.629 245.977 434.251 259.81 441.126 271.362L441.312 271.689C443.15 275.074 442.418 278.674 440.304 281.154C438.194 283.63 434.695 285.009 430.987 283.996L430.628 283.891C328.555 251.824 240.49 253.972 155.299 282.387L153.287 283.063C149.988 284.179 146.857 283.573 144.969 281.81C143.046 280.014 142.539 277.139 144.282 274.055L144.682 273.358C148.866 266.132 154.994 258.134 160.441 251.605C166.06 244.87 170.991 239.655 172.356 238.433L172.378 238.414L172.4 238.397C183.268 230.473 200.285 224.139 220.521 219.678C240.769 215.214 264.293 212.615 288.219 212.193Z" fill="#323232" stroke="#333333" stroke-width="1.12243"/>
<path d="M151.966 282.625C200.791 240.534 364.665 233.238 433.695 282.625C337.166 247.83 200.791 259.841 151.966 282.625Z" fill="#1D1D1D"/>
<path d="M156.178 517.137L155.695 517.206C152.557 517.654 146.629 517.76 141.189 516.042L140.665 515.869C135.74 514.194 133.729 508.944 133.729 503.998V435.183C133.729 433.18 133.997 430.928 135.515 429.318L135.789 429.037C138.725 426.122 144.811 423.042 155.625 423.209L156.178 423.217V517.137Z" fill="#C2C4C7" stroke="#333333" stroke-width="1.12243"/>
<path d="M155.896 423.208V508.993L155.421 509.067C153.878 509.308 151.367 509.45 148.805 509.103C146.255 508.758 143.56 507.915 141.748 506.103L141.6 505.955L141.585 505.745C140.976 496.846 140.358 482.142 140.482 466.936C140.606 451.741 141.471 436.001 143.841 425.053L143.887 424.841L144.063 424.715C145.159 423.933 146.462 423.566 148.227 423.386C149.981 423.207 152.26 423.208 155.334 423.208H155.896Z" fill="#2AB471" stroke="#333333" stroke-width="1.12243"/>
<path d="M154.773 473.657H141.304L142.146 505.084C145.513 507.329 146.916 509.013 154.773 507.891V473.657Z" fill="#0D703F"/>
<path d="M156.734 470.29C153.366 485.442 185.075 505.085 201.631 465.239L156.734 470.29Z" fill="#0D703F"/>
<path d="M160.376 411.435C163.041 412.941 166.208 415.518 170.266 418.745C174.341 421.986 179.36 425.924 185.777 430.21L186.985 431.026C193.028 435.161 199.021 440.138 200.996 447.352L201.137 447.886C203.994 459.093 200.007 469.407 192.565 475.367C185.114 481.335 174.243 482.902 163.439 476.72L162.926 476.42C159.692 474.495 157.023 471.739 155.179 468.469L154.821 467.809C148.775 456.165 144.158 434.437 159.635 411.609L159.925 411.18L160.376 411.435Z" fill="#3C3C3E" stroke="#333333" stroke-width="1.12243"/>
<path d="M175.818 439.143C171.796 434.559 162.122 423.372 160.102 414.169C144.106 431.847 145.791 482.917 181.148 479.269L175.818 439.143Z" fill="#1D1D1D"/>
<circle cx="177.778" cy="455.417" r="20.7649" fill="#ECECEC" stroke="#333333" stroke-width="1.12243"/>
<path fill-rule="evenodd" clip-rule="evenodd" d="M177.532 474.218C167.246 474.104 158.943 465.73 158.943 455.417C158.943 445.104 167.246 436.731 177.532 436.617V474.218Z" fill="#DBDBDB"/>
<path d="M275.295 297.997L198.267 314.847L398.058 303.614L275.295 297.997Z" fill="#96D7FD"/>
<path d="M201.634 401.26L338.289 274.426L366.63 277.232L213.419 402.663L201.634 401.26Z" fill="#96D7FD" fill-opacity="0.81"/>
<path d="M373.365 277.794L259.438 397.332H266.173L382.063 279.197L373.365 277.794Z" fill="#96D7FD" fill-opacity="0.81"/>
<path d="M265.596 407.402V405.841H271.796V407.402H269.65V412.975H267.741V407.402H265.596ZM285.552 408.196C285.522 408.073 285.475 407.965 285.41 407.872C285.345 407.777 285.263 407.697 285.166 407.632C285.071 407.564 284.959 407.514 284.831 407.482C284.706 407.447 284.568 407.43 284.417 407.43C284.092 407.43 283.814 407.508 283.584 407.663C283.357 407.819 283.183 408.043 283.062 408.335C282.943 408.628 282.884 408.981 282.884 409.394C282.884 409.812 282.941 410.17 283.055 410.467C283.169 410.764 283.338 410.992 283.563 411.15C283.789 411.308 284.068 411.387 284.403 411.387C284.698 411.387 284.943 411.344 285.138 411.258C285.335 411.172 285.483 411.05 285.58 410.892C285.678 410.734 285.727 410.548 285.727 410.335L286.061 410.37H284.431V408.99H287.594V409.979C287.594 410.63 287.455 411.186 287.179 411.648C286.905 412.108 286.527 412.461 286.043 412.707C285.563 412.951 285.011 413.073 284.389 413.073C283.695 413.073 283.085 412.925 282.56 412.63C282.035 412.335 281.626 411.915 281.331 411.369C281.038 410.824 280.892 410.175 280.892 409.422C280.892 408.832 280.981 408.31 281.16 407.855C281.341 407.4 281.592 407.015 281.912 406.702C282.233 406.386 282.603 406.148 283.023 405.988C283.444 405.825 283.894 405.744 284.375 405.744C284.798 405.744 285.19 405.804 285.552 405.925C285.917 406.043 286.239 406.213 286.517 406.433C286.798 406.652 287.025 406.911 287.196 407.21C287.368 407.51 287.473 407.838 287.51 408.196H285.552ZM298.859 412.975H296.769L299.124 405.841H301.771L304.126 412.975H302.036L300.476 407.806H300.42L298.859 412.975ZM298.469 410.161H302.398V411.61H298.469V410.161ZM317.841 408.196C317.81 408.073 317.763 407.965 317.698 407.872C317.633 407.777 317.551 407.697 317.454 407.632C317.359 407.564 317.247 407.514 317.12 407.482C316.994 407.447 316.856 407.43 316.705 407.43C316.38 407.43 316.102 407.508 315.873 407.663C315.645 407.819 315.471 408.043 315.35 408.335C315.232 408.628 315.172 408.981 315.172 409.394C315.172 409.812 315.229 410.17 315.343 410.467C315.457 410.764 315.626 410.992 315.852 411.15C316.077 411.308 316.357 411.387 316.691 411.387C316.986 411.387 317.231 411.344 317.426 411.258C317.623 411.172 317.771 411.05 317.868 410.892C317.966 410.734 318.015 410.548 318.015 410.335L318.349 410.37H316.719V408.99H319.882V409.979C319.882 410.63 319.744 411.186 319.467 411.648C319.193 412.108 318.815 412.461 318.332 412.707C317.851 412.951 317.3 413.073 316.677 413.073C315.983 413.073 315.373 412.925 314.848 412.63C314.324 412.335 313.914 411.915 313.619 411.369C313.326 410.824 313.18 410.175 313.18 409.422C313.18 408.832 313.269 408.31 313.448 407.855C313.629 407.4 313.88 407.015 314.201 406.702C314.521 406.386 314.891 406.148 315.312 405.988C315.732 405.825 316.183 405.744 316.663 405.744C317.086 405.744 317.478 405.804 317.841 405.925C318.205 406.043 318.527 406.213 318.805 406.433C319.086 406.652 319.313 406.911 319.485 407.21C319.657 407.51 319.761 407.838 319.798 408.196H317.841Z" fill="#513500"/>
<path d="M269.958 426.577C269.31 426.575 268.75 426.425 268.279 426.128C267.807 425.83 267.444 425.402 267.189 424.842C266.933 424.283 266.807 423.611 266.809 422.829C266.811 422.044 266.939 421.378 267.192 420.829C267.447 420.281 267.81 419.865 268.279 419.579C268.75 419.293 269.31 419.151 269.958 419.151C270.606 419.151 271.165 419.295 271.637 419.582C272.108 419.868 272.472 420.285 272.727 420.833C272.982 421.381 273.109 422.046 273.107 422.829C273.107 423.616 272.979 424.29 272.724 424.849C272.468 425.409 272.105 425.837 271.633 426.135C271.164 426.429 270.606 426.577 269.958 426.577ZM269.958 425.002C270.292 425.002 270.566 424.828 270.78 424.48C270.996 424.129 271.103 423.579 271.1 422.829C271.1 422.339 271.052 421.938 270.954 421.627C270.856 421.316 270.722 421.086 270.55 420.937C270.378 420.787 270.181 420.711 269.958 420.711C269.623 420.711 269.351 420.881 269.139 421.22C268.928 421.559 268.82 422.095 268.815 422.829C268.813 423.328 268.861 423.739 268.958 424.062C269.056 424.382 269.19 424.619 269.362 424.773C269.536 424.926 269.735 425.002 269.958 425.002ZM285.853 426.577C285.205 426.575 284.645 426.425 284.174 426.128C283.702 425.83 283.339 425.402 283.084 424.842C282.828 424.283 282.702 423.611 282.704 422.829C282.706 422.044 282.834 421.378 283.087 420.829C283.343 420.281 283.705 419.865 284.174 419.579C284.645 419.293 285.205 419.151 285.853 419.151C286.501 419.151 287.06 419.295 287.532 419.582C288.003 419.868 288.367 420.285 288.622 420.833C288.877 421.381 289.004 422.046 289.002 422.829C289.002 423.616 288.874 424.29 288.619 424.849C288.363 425.409 288 425.837 287.528 426.135C287.059 426.429 286.501 426.577 285.853 426.577ZM285.853 425.002C286.187 425.002 286.461 424.828 286.675 424.48C286.891 424.129 286.998 423.579 286.995 422.829C286.995 422.339 286.947 421.938 286.849 421.627C286.752 421.316 286.617 421.086 286.445 420.937C286.273 420.787 286.076 420.711 285.853 420.711C285.518 420.711 285.246 420.881 285.034 421.22C284.823 421.559 284.715 422.095 284.71 422.829C284.708 423.328 284.756 423.739 284.853 424.062C284.951 424.382 285.085 424.619 285.257 424.773C285.431 424.926 285.63 425.002 285.853 425.002ZM298.77 426.382L301.57 420.836V420.795H298.282V419.248H303.577V420.795L300.762 426.382H298.77ZM316.663 419.248V426.382H314.727V421.032H314.685L313.124 421.965V420.321L314.88 419.248H316.663Z" fill="#513500"/>
<path d="M180.837 375.394L167.693 379.904L166.983 378.627C165.338 378.494 163.813 379.533 163.398 381.13C161.443 388.645 159.034 402.998 175.126 398.776C176.389 398.444 177.269 397.314 177.374 396.012L177.494 394.524L168.911 395.051L179.723 393.02C181.331 392.718 182.462 391.264 182.361 389.63L182.184 386.806C183.594 386.438 184.487 385.052 184.24 383.617L183.673 380.33C184.293 380.177 184.699 379.583 184.616 378.95L184.443 377.63C184.218 375.912 182.475 374.832 180.837 375.394Z" fill="#A9623B"/>
<path d="M167.334 384.349L183.673 380.33M183.673 380.33V380.33C184.293 380.177 184.699 379.583 184.616 378.95L184.443 377.63C184.218 375.912 182.475 374.832 180.837 375.394L167.693 379.904L166.983 378.627V378.627C165.338 378.494 163.813 379.533 163.398 381.13C161.443 388.645 159.034 402.998 175.126 398.776C176.389 398.444 177.269 397.314 177.374 396.012L177.494 394.524L168.911 395.051L179.723 393.02C181.331 392.718 182.462 391.264 182.361 389.63L182.184 386.806M183.673 380.33L184.24 383.617C184.487 385.052 183.594 386.438 182.184 386.806V386.806M166.812 390.814L182.184 386.806" stroke="#A55428" stroke-width="0.810804"/>
<path d="M178.329 379.136L178.121 376.679L181.856 375.76L182.403 379.058L178.329 379.136Z" fill="white"/>
<path d="M178.987 386.103L178.779 383.646L182.514 382.727L183.061 386.025L178.987 386.103Z" fill="white"/>
<path d="M177.723 391.695L177.514 389.238L181.249 388.319L181.425 391.181L177.723 391.695Z" fill="white"/>
<path d="M173.872 397.707L173.721 395.92L176.437 395.252L176.835 397.65L173.872 397.707Z" fill="white"/>
<rect x="435.657" y="356.842" width="3.7519" height="27.2013" rx="1.87595" transform="rotate(46.2286 435.657 356.842)" fill="#323232"/>
<ellipse cx="452.879" cy="358.902" rx="25.7943" ry="15.9456" fill="#323232"/>
<path d="M454.289 357.027L432.246 349.524C439.594 344.521 458.04 337.518 473.048 349.524L454.289 357.027Z" fill="#1D1D1D"/>
<path d="M454.289 360.779L432.246 368.283C439.594 373.285 458.04 380.289 473.048 368.283L454.289 360.779Z" fill="#1D1D1D"/>
<rect width="3.7519" height="27.2013" rx="1.87595" transform="matrix(-0.691783 0.722106 0.722106 0.691783 148.122 356.842)" fill="#323232"/>
<ellipse cx="25.7943" cy="15.9456" rx="25.7943" ry="15.9456" transform="matrix(-1 0 0 1 156.695 342.957)" fill="#323232"/>
<path d="M129.493 357.027L151.535 349.524C144.188 344.521 125.741 337.518 110.733 349.524L129.493 357.027Z" fill="#1D1D1D"/>
<path d="M129.493 360.78L151.535 368.283C144.188 373.286 125.741 380.289 110.733 368.283L129.493 360.78Z" fill="#1D1D1D"/>
<path d="M94.2349 284.465C84.4123 258.28 62.4619 187.343 100.338 171.347L77.2245 150.529C66.3113 167.34 54.435 217.664 94.2349 284.465Z" fill="white"/>
<ellipse cx="124.977" cy="91.3163" rx="124.977" ry="91.3163" transform="matrix(-0.998638 0.0521821 0.0521821 0.998638 298.58 0.131943)" fill="white"/>
<path d="M149.159 39.4421H152.135C156.048 39.4421 158.868 42.4864 160.596 48.575L161.048 52.4695C161.048 56.2908 159.142 59.7191 155.33 62.7542C154.087 63.6684 152.642 64.1255 150.997 64.1255C146.526 64.1255 142.792 61.6892 139.793 56.8165C139.181 55.7652 138.875 54.851 138.875 54.0739V50.6319C138.875 46.4723 141.082 43.1218 145.498 40.5803L149.159 39.4421ZM145.128 50.5359C146.097 53.9825 147.61 55.7057 149.667 55.7057H150.736C152.409 55.7057 153.488 54.7001 153.973 52.6889V52.0444C153.205 48.159 151.984 46.2164 150.311 46.2164H149.872C148.108 46.2164 146.526 47.5831 145.128 50.3165V50.5359ZM171.539 39.4421H174.282C175.196 39.4421 175.653 40.0501 175.653 41.266L175.886 42.6373C175.255 44.3102 174.19 45.1467 172.691 45.1467L172.458 44.9273H172.225C169.327 46.8654 167.878 48.4653 167.878 49.7269C168.901 53.3837 170.506 55.2121 172.691 55.2121H173.829C176.114 55.2121 177.257 53.8408 177.257 51.0982H177.024L173.596 52.922H172.91C171.42 52.922 170.584 51.857 170.401 49.7269C170.401 47.935 172.535 46.486 176.805 45.3799H177.49C179.209 45.3799 181.037 46.7512 182.976 49.4938L183.428 51.3176V52.2364C183.428 56.3045 181.522 59.8105 177.71 62.7542C176.466 63.6684 175.022 64.1255 173.376 64.1255C168.906 64.1255 165.172 61.6892 162.173 56.8165C161.56 55.7652 161.254 54.851 161.254 54.0739V50.6319C161.254 46.4723 163.462 43.1218 167.878 40.5803L171.539 39.4421ZM194.289 39.4559H199.129C200.876 39.4559 202.261 41.1471 203.284 44.5297C207.124 52.5746 209.044 58.4163 209.044 62.0548C209.355 62.0548 209.51 62.4388 209.51 63.2067L208.825 64.1255L206.054 63.8924H202.133C201.749 63.8924 201.209 62.1234 200.514 58.5855L200.295 58.3661C200.295 57.5981 199.6 57.2142 198.211 57.2142C196.73 56.7479 195.349 56.5148 194.069 56.5148C193.146 56.7799 192.684 57.7033 192.684 59.2848C192.337 59.2848 191.953 60.0527 191.532 61.5886C190.609 63.1062 189.992 63.8741 189.681 63.8924H188.296L187.377 63.6593L186.692 63.8924C185.32 63.8924 184.319 63.5084 183.689 62.7405V62.5074C183.689 60.4321 186.609 53.5939 192.451 41.9928C193.21 40.4295 193.823 39.5838 194.289 39.4559ZM197.292 46.6003L195.221 51.6741V51.9072C195.221 52.474 196.524 52.858 199.129 53.0591L199.363 52.826V52.5929L197.758 46.6003H197.292ZM214.653 39.5107H215.736C216.458 39.5838 216.819 39.7667 216.819 40.0592V40.2375L214.831 58.1466C214.328 58.6312 213.725 58.8734 213.021 58.8734H210.484L209.949 58.3386V41.4991C211.229 40.1735 212.797 39.5107 214.653 39.5107ZM211.553 59.7099L212.596 59.8196C213.601 60.3956 214.291 61.2732 214.666 62.4525L214.227 63.2479C213.907 63.833 213.409 64.2489 212.733 64.4958L212.116 64.1255C210.625 64.0524 210.022 63.449 210.306 62.3154L209.812 62.192C210.379 60.9487 210.959 60.1213 211.553 59.7099Z" fill="#DC102E"/>
<path d="M66.7821 82.4621H67.2276C70.679 83.0561 72.4047 84.0423 72.4047 85.4204L73.4473 86.463L75.2205 83.9413C76.4264 83.1512 77.8581 82.6581 79.5154 82.4621H79.961C80.5907 82.7829 81.1342 85.1531 81.5916 89.5728V97.4231C81.5916 98.1122 81.1461 98.4567 80.255 98.4567H78.9273C77.7749 98.4567 76.9848 98.2607 76.5571 97.8686L76.8511 89.5728C75.2948 90.6302 74.3562 91.8153 74.0354 93.1282L73.4473 93.5648H73.0017L71.6651 91.052C71.3681 90.9272 71.0741 90.4817 70.783 89.7154C70.5454 89.7154 70.2483 89.4688 69.8919 88.9758V89.1273L70.186 97.8686C69.7583 98.2607 68.9682 98.4567 67.8157 98.4567H66.488C65.597 98.4567 65.1515 98.1122 65.1515 97.4231V89.5728C65.6089 85.1531 66.1524 82.7829 66.7821 82.4621ZM82.2243 82.4265L83.7213 82.5779H85.3697C85.5658 82.5779 85.9133 83.8759 86.4123 86.4719C86.84 88.7708 87.1905 89.9203 87.4637 89.9203H87.6152L90.3152 83.1749C90.5884 82.7769 90.9359 82.5779 91.3577 82.5779H91.9547C93.1547 82.5779 93.7547 82.7769 93.7547 83.1749C93.7547 84.0838 92.2577 87.2798 89.2637 92.7628H89.1122L89.2637 95.3113V96.2112C89.2637 97.435 88.2657 98.1835 86.2697 98.4567H85.9667L85.6638 98.1538V93.9658C85.6638 92.6826 84.9658 90.8827 83.5698 88.5659C82.6728 85.9699 82.1233 84.0244 81.9213 82.7294L82.2243 82.4265ZM105.659 82.4175H107.441C108.035 82.4175 108.333 82.8126 108.333 83.6027L108.484 84.4937C108.074 85.5808 107.382 86.1244 106.408 86.1244L106.256 85.9818H106.105C104.222 87.2412 103.28 88.2808 103.28 89.1005C103.945 91.4767 104.988 92.6648 106.408 92.6648H107.147C108.632 92.6648 109.375 91.7737 109.375 89.9916H109.224L106.996 91.1767H106.55C105.582 91.1767 105.039 90.4847 104.92 89.1005C104.92 87.9362 106.307 86.9946 109.081 86.2759H109.527C110.643 86.2759 111.831 87.1669 113.091 88.9491L113.385 90.1342V90.7312C113.385 93.3747 112.146 95.6528 109.669 97.5657C108.861 98.1597 107.923 98.4567 106.853 98.4567C103.948 98.4567 101.522 96.8736 99.5733 93.7073C99.1753 93.0242 98.9763 92.4302 98.9763 91.9252V89.6886C98.9763 86.9857 100.411 84.8086 103.28 83.1571L105.659 82.4175ZM114.294 82.4621H119.034C122.094 83.2997 123.623 84.8294 123.623 87.0511C123.623 88.5481 122.786 89.8817 121.11 91.052V91.346C122.625 92.5638 124.104 94.2925 125.548 96.532V96.6835C124.069 97.6637 122.884 98.2043 121.993 98.3052L118.001 92.5311L117.555 92.3886L117.698 92.5311L117.555 93.2707V93.4222L118.001 97.5657C118.001 98.0587 117.704 98.3052 117.11 98.3052V98.4567C114.739 98.3617 113.554 97.9666 113.554 97.2716L113.706 96.238V87.6481L113.848 87.0511L113.706 86.463C113.706 83.7957 113.902 82.4621 114.294 82.4621ZM117.11 86.0174L117.261 88.8332L117.404 88.9758H117.555C118.672 88.4827 119.509 87.7431 120.068 86.757V86.6055C119.515 85.6194 118.826 85.1264 118.001 85.1264H117.555C117.359 85.1264 117.21 85.4234 117.11 86.0174ZM132.614 82.4265H135.76C136.894 82.4265 137.794 83.5254 138.459 85.7234C140.954 90.951 142.202 94.7469 142.202 97.1112C142.404 97.1112 142.505 97.3607 142.505 97.8597L142.059 98.4567L140.259 98.3052H137.711C137.461 98.3052 137.111 97.1558 136.659 94.8568L136.517 94.7142C136.517 94.2153 136.065 93.9658 135.162 93.9658C134.2 93.6628 133.303 93.5113 132.471 93.5113C131.871 93.6836 131.571 94.2836 131.571 95.3113C131.346 95.3113 131.096 95.8103 130.823 96.8083C130.223 97.7944 129.822 98.2934 129.62 98.3052H128.72L128.123 98.1538L127.678 98.3052C126.786 98.3052 126.136 98.0557 125.726 97.5567V97.4053C125.726 96.0568 127.624 91.6133 131.42 84.0749C131.913 83.0591 132.311 82.5096 132.614 82.4265ZM134.565 87.0689L133.22 90.3658V90.5173C133.22 90.8856 134.066 91.1351 135.76 91.2658L135.911 91.1143V90.9629L134.868 87.0689H134.565ZM144.314 82.4265H144.733C146.241 82.6522 147.634 83.1452 148.912 83.9056L150.587 86.7303H150.729C150.729 84.467 151.101 83.0799 151.843 82.569C153.608 82.569 154.49 82.9165 154.49 83.6116L155.461 95.338V96.5231L155.604 97.1201C155.384 97.8152 154.825 98.1627 153.928 98.1627H152.119C151.377 98.1627 151.006 97.7647 151.006 96.9686V94.3044C151.006 93.5796 150.634 93.0331 149.892 92.6648C149.215 91.1203 148.332 89.8847 147.245 88.958V89.1005L147.522 97.8597C147.118 98.2577 146.375 98.4567 145.294 98.4567H144.038C143.2 98.4567 142.781 98.1092 142.781 97.4142V89.5461C143.215 85.1204 143.726 82.7472 144.314 82.4265ZM156.486 82.3641H158.268L158.419 82.5156L158.571 82.3641H161.404C164.47 82.3641 166.356 84.9957 167.063 90.2589V90.7045C167.063 93.4133 165.673 95.7479 162.892 97.7082C161.847 98.2072 160.605 98.4567 159.168 98.4567C156.881 98.332 155.737 97.934 155.737 97.2627L155.889 96.2202V87.5768L156.031 86.9798L155.889 86.3828C155.889 83.7036 156.088 82.3641 156.486 82.3641ZM159.168 86.0887C159.364 86.5343 159.462 87.1788 159.462 88.0223V92.2014L159.765 92.4955H160.807C161.96 92.4955 162.702 91.8005 163.035 90.4104V89.9649C162.506 87.2798 161.663 85.9373 160.504 85.9373H160.21L159.168 86.0887ZM168.774 82.4621H169.219C172.67 83.0561 174.396 84.0423 174.396 85.4204L175.439 86.463L177.212 83.9413C178.418 83.1512 179.849 82.6581 181.507 82.4621H181.952C182.582 82.7829 183.126 85.1531 183.583 89.5728V97.4231C183.583 98.1122 183.137 98.4567 182.246 98.4567H180.919C179.766 98.4567 178.976 98.2607 178.548 97.8686L178.843 89.5728C177.286 90.6302 176.348 91.8153 176.027 93.1282L175.439 93.5648H174.993L173.657 91.052C173.36 90.9272 173.065 90.4817 172.774 89.7154C172.537 89.7154 172.24 89.4688 171.883 88.9758V89.1273L172.177 97.8686C171.75 98.2607 170.96 98.4567 169.807 98.4567H168.479C167.588 98.4567 167.143 98.1122 167.143 97.4231V89.5728C167.6 85.1531 168.144 82.7829 168.774 82.4621ZM190.596 82.4175H192.529C195.072 82.4175 196.904 84.3957 198.027 88.352L198.321 90.8827C198.321 93.3658 197.083 95.5934 194.606 97.5657C193.798 98.1597 192.859 98.4567 191.79 98.4567C188.885 98.4567 186.458 96.8736 184.51 93.7073C184.112 93.0242 183.913 92.4302 183.913 91.9252V89.6886C183.913 86.9857 185.347 84.8086 188.217 83.1571L190.596 82.4175ZM187.976 89.6263C188.606 91.8658 189.589 92.9856 190.925 92.9856H191.62C192.708 92.9856 193.409 92.3321 193.723 91.0252V90.6064C193.224 88.0817 192.431 86.8194 191.344 86.8194H191.059C189.913 86.8194 188.885 87.7075 187.976 89.4837V89.6263ZM207.865 82.3819H208.595C208.827 82.3819 209.02 82.768 209.174 83.5403C209.174 84.6987 208.064 85.2779 205.842 85.2779L205.699 85.4204H205.548C205.839 92.8282 206.082 96.7875 206.278 97.2983C206.278 97.8389 205.408 98.225 203.668 98.4567H202.224C201.161 98.3082 200.629 98.0676 200.629 97.735C201.015 92.1747 201.303 88.9877 201.493 88.1738V86.1511L201.208 85.8571C200.62 86.1481 199.75 86.2937 198.597 86.2937L198.455 86.1511V85.4204C198.657 83.5908 199.382 82.6759 200.629 82.6759C202.114 82.4799 204.526 82.3819 207.865 82.3819ZM210.805 82.3997H211.251C212.837 82.5958 213.63 82.8423 213.63 83.1393V87.0065C213.63 87.6006 214.123 87.8976 215.109 87.8976L217.043 88.2006C217.494 88.2006 217.791 86.8135 217.934 84.0393C217.934 83.469 218.234 82.973 218.834 82.5512C220.717 82.5512 221.658 82.8987 221.658 83.5937L222.692 95.338V96.5231L222.843 97.1201C222.606 97.8152 222.012 98.1627 221.061 98.1627H219.128C218.332 98.1627 217.934 97.7647 217.934 96.9686V95.035C217.934 93.2529 217.738 92.3618 217.346 92.3618C216.9 92.1658 216.255 92.0678 215.412 92.0678H214.369L214.075 92.3618V94.5895L214.218 97.8597C213.79 98.2577 212.997 98.4567 211.839 98.4567H210.502C209.611 98.4567 209.166 98.1092 209.166 97.4142V89.5372C209.623 85.0996 210.169 82.7205 210.805 82.3997ZM232.396 82.4621H233.144L233.599 82.7651C233.474 84.5769 233.171 85.4828 232.69 85.4828C229.577 85.762 228.02 86.163 228.02 86.6857V88.8065L228.466 88.9491C228.923 88.753 229.577 88.655 230.426 88.655H231.638L232.093 89.1005V91.8183L231.638 92.2727H230.426C229.22 92.2727 228.617 92.1717 228.617 91.9698L228.02 92.1212V93.9301C228.02 94.536 228.421 94.839 229.223 94.839L233.144 95.5875L233.599 98.1538L233.144 98.4567H226.96C224.245 97.9637 222.888 97.0073 222.888 95.5875V95.436C222.888 89.6263 223.541 85.5541 224.848 83.2195C227.082 82.7146 229.598 82.4621 232.396 82.4621ZM234.552 82.4621H239.292C242.352 83.2997 243.881 84.8294 243.881 87.0511C243.881 88.5481 243.044 89.8817 241.369 91.052V91.346C242.883 92.5638 244.363 94.2925 245.806 96.532V96.6835C244.327 97.6637 243.142 98.2043 242.251 98.3052L238.259 92.5311L237.813 92.3886L237.956 92.5311L237.813 93.2707V93.4222L238.259 97.5657C238.259 98.0587 237.962 98.3052 237.368 98.3052V98.4567C234.998 98.3617 233.812 97.9666 233.812 97.2716L233.964 96.238V87.6481L234.106 87.0511L233.964 86.463C233.964 83.7957 234.16 82.4621 234.552 82.4621ZM237.368 86.0174L237.519 88.8332L237.662 88.9758H237.813C238.93 88.4827 239.768 87.7431 240.326 86.757V86.6055C239.774 85.6194 239.085 85.1264 238.259 85.1264H237.813C237.617 85.1264 237.469 85.4234 237.368 86.0174ZM252.596 82.4265H253.015C254.524 82.6522 255.917 83.1452 257.194 83.9056L258.869 86.7303H259.012C259.012 84.467 259.383 83.0799 260.126 82.569C261.89 82.569 262.772 82.9165 262.772 83.6116L263.743 95.338V96.5231L263.886 97.1201C263.666 97.8152 263.108 98.1627 262.211 98.1627H260.402C259.659 98.1627 259.288 97.7647 259.288 96.9686V94.3044C259.288 93.5796 258.917 93.0331 258.174 92.6648C257.497 91.1203 256.615 89.8847 255.528 88.958V89.1005L255.804 97.8597C255.4 98.2577 254.657 98.4567 253.576 98.4567H252.32C251.482 98.4567 251.063 98.1092 251.063 97.4142V89.5461C251.497 85.1204 252.008 82.7472 252.596 82.4265ZM270.703 82.4175H272.636C275.179 82.4175 277.011 84.3957 278.134 88.352L278.428 90.8827C278.428 93.3658 277.189 95.5934 274.712 97.5657C273.904 98.1597 272.966 98.4567 271.897 98.4567C268.992 98.4567 266.565 96.8736 264.617 93.7073C264.219 93.0242 264.02 92.4302 264.02 91.9252V89.6886C264.02 86.9857 265.454 84.8086 268.323 83.1571L270.703 82.4175ZM268.083 89.6263C268.712 91.8658 269.696 92.9856 271.032 92.9856H271.727C272.814 92.9856 273.515 92.3321 273.83 91.0252V90.6064C273.331 88.0817 272.538 86.8194 271.451 86.8194H271.166C270.019 86.8194 268.992 87.7075 268.083 89.4837V89.6263ZM279.301 82.4621H284.042C287.101 83.2997 288.631 84.8294 288.631 87.0511C288.631 88.5481 287.793 89.8817 286.118 91.052V91.346C287.633 92.5638 289.112 94.2925 290.555 96.532V96.6835C289.076 97.6637 287.891 98.2043 287 98.3052L283.008 92.5311L282.563 92.3886L282.705 92.5311L282.563 93.2707V93.4222L283.008 97.5657C283.008 98.0587 282.711 98.3052 282.117 98.3052V98.4567C279.747 98.3617 278.562 97.9666 278.562 97.2716L278.713 96.238V87.6481L278.856 87.0511L278.713 86.463C278.713 83.7957 278.909 82.4621 279.301 82.4621ZM282.117 86.0174L282.269 88.8332L282.411 88.9758H282.563C283.679 88.4827 284.517 87.7431 285.075 86.757V86.6055C284.523 85.6194 283.834 85.1264 283.008 85.1264H282.563C282.367 85.1264 282.218 85.4234 282.117 86.0174ZM89.9409 103.418H91.723C92.3171 103.418 92.6141 103.813 92.6141 104.603L92.7656 105.494C92.3557 106.581 91.6636 107.124 90.6894 107.124L90.5379 106.982H90.3864C88.5033 108.241 87.5618 109.281 87.5618 110.101C88.2271 112.477 89.2696 113.665 90.6894 113.665H91.429C92.9141 113.665 93.6567 112.774 93.6567 110.992H93.5052L91.2775 112.177H90.832C89.8637 112.177 89.3201 111.485 89.2013 110.101C89.2013 108.936 90.5884 107.995 93.3626 107.276H93.8081C94.9249 107.276 96.113 108.167 97.3724 109.949L97.6664 111.134V111.731C97.6664 114.375 96.4279 116.653 93.9507 118.566C93.1428 119.16 92.2042 119.457 91.1349 119.457C88.2301 119.457 85.8034 117.874 83.8549 114.707C83.4569 114.024 83.2579 113.43 83.2579 112.925V110.689C83.2579 107.986 84.6925 105.809 87.5618 104.157L89.9409 103.418ZM104.519 103.418H106.452C108.995 103.418 110.827 105.396 111.95 109.352L112.244 111.883C112.244 114.366 111.006 116.593 108.529 118.566C107.721 119.16 106.782 119.457 105.713 119.457C102.808 119.457 100.381 117.874 98.4328 114.707C98.0348 114.024 97.8358 113.43 97.8358 112.925V110.689C97.8358 107.986 99.2704 105.809 102.14 104.157L104.519 103.418ZM101.899 110.626C102.529 112.866 103.512 113.986 104.848 113.986H105.543C106.631 113.986 107.332 113.332 107.646 112.025V111.606C107.147 109.082 106.354 107.819 105.267 107.819H104.982C103.836 107.819 102.808 108.708 101.899 110.484V110.626ZM118.206 103.364H119.988L120.139 103.516L120.291 103.364H123.124C126.189 103.364 128.076 105.996 128.782 111.259V111.704C128.782 114.413 127.392 116.748 124.612 118.708C123.567 119.207 122.325 119.457 120.888 119.457C118.601 119.332 117.457 118.934 117.457 118.263L117.609 117.22V108.577L117.751 107.98L117.609 107.383C117.609 104.704 117.808 103.364 118.206 103.364ZM120.888 107.089C121.084 107.534 121.182 108.179 121.182 109.022V113.201L121.485 113.495H122.527C123.68 113.495 124.422 112.8 124.755 111.41V110.965C124.226 108.28 123.383 106.937 122.224 106.937H121.93L120.888 107.089ZM129.602 103.462H134.343C137.402 104.3 138.932 105.829 138.932 108.051C138.932 109.548 138.094 110.882 136.419 112.052V112.346C137.934 113.564 139.413 115.292 140.856 117.532V117.684C139.377 118.664 138.192 119.204 137.301 119.305L133.309 113.531L132.864 113.389L133.006 113.531L132.864 114.271V114.422L133.309 118.566C133.309 119.059 133.012 119.305 132.418 119.305V119.457C130.048 119.362 128.863 118.967 128.863 118.272L129.014 117.238V108.648L129.157 108.051L129.014 107.463C129.014 104.796 129.21 103.462 129.602 103.462ZM132.418 107.017L132.569 109.833L132.712 109.976H132.864C133.98 109.483 134.818 108.743 135.376 107.757V107.606C134.824 106.619 134.135 106.126 133.309 106.126H132.864C132.668 106.126 132.519 106.423 132.418 107.017ZM141.48 103.462H143.574C144.768 103.462 145.365 104.359 145.365 106.153L146.711 118.86V119.011C146.616 119.308 146.319 119.457 145.82 119.457H144.92C143.393 119.457 142.098 118.907 141.035 117.808V103.908L141.48 103.462ZM149.099 103.631L149.241 103.774L149.99 103.631H150.89C151.668 103.911 152.913 106.747 154.623 112.141L155.817 114.823H156.111C156.812 112.293 157.51 109.159 158.205 105.422C158.401 105.422 158.5 104.923 158.5 103.925L158.954 103.631H161.493L163.285 103.48L163.73 104.077C162.934 107.98 162.037 111.116 161.039 113.487C159.304 117.324 158.259 119.264 157.902 119.305L157.011 119.457H153.875C153.459 119.409 151.668 116.023 148.502 109.299L147.005 104.522V104.371C147.005 104.038 147.703 103.792 149.099 103.631ZM173.354 103.462H174.102L174.557 103.765C174.432 105.577 174.129 106.483 173.648 106.483C170.535 106.762 168.978 107.163 168.978 107.686V109.806L169.424 109.949C169.881 109.753 170.535 109.655 171.384 109.655H172.596L173.051 110.101V112.818L172.596 113.273H171.384C170.178 113.273 169.575 113.172 169.575 112.97L168.978 113.121V114.93C168.978 115.536 169.379 115.839 170.181 115.839L174.102 116.587L174.557 119.154L174.102 119.457H167.918C165.203 118.964 163.846 118.007 163.846 116.587V116.436C163.846 110.626 164.499 106.554 165.806 104.219C168.04 103.715 170.556 103.462 173.354 103.462ZM183.922 103.462H184.528L184.982 103.917L184.831 104.371L184.982 106.18V106.483L185.133 111.161L184.982 115.233C184.982 115.797 186.639 116.198 189.954 116.436C190.156 116.638 190.358 117.544 190.56 119.154L190.106 119.457H189.357C184.124 119.332 181.507 118.931 181.507 118.254C180.402 115.67 179.849 111.595 179.849 106.028C179.849 104.888 181.207 104.032 183.922 103.462ZM191.219 103.462H193.313C194.507 103.462 195.105 104.359 195.105 106.153L196.45 118.86V119.011C196.355 119.308 196.058 119.457 195.559 119.457H194.659C193.132 119.457 191.837 118.907 190.774 117.808V103.908L191.219 103.462ZM206.421 103.426C207.431 103.426 207.936 104.383 207.936 106.296V106.902C206.914 108.529 205.904 109.893 204.906 110.992C207.229 112.887 208.39 114.499 208.39 115.83V118.396C208.39 118.937 207.633 119.24 206.118 119.305C203.974 115.848 202.563 113.781 201.886 113.103V119.002L201.431 119.457H200.825C198.104 118.964 196.744 118.007 196.744 116.587V116.436C196.744 110.603 197.4 106.518 198.713 104.184L201.431 103.729C201.669 103.896 201.871 104.852 202.037 106.599L201.886 108.719C204.101 107.163 205.209 105.601 205.209 104.032C205.637 103.628 206.041 103.426 206.421 103.426ZM218.103 103.462H218.851L219.306 103.765C219.181 105.577 218.878 106.483 218.397 106.483C215.284 106.762 213.728 107.163 213.728 107.686V109.806L214.173 109.949C214.631 109.753 215.284 109.655 216.134 109.655H217.346L217.8 110.101V112.818L217.346 113.273H216.134C214.928 113.273 214.325 113.172 214.325 112.97L213.728 113.121V114.93C213.728 115.536 214.129 115.839 214.931 115.839L218.851 116.587L219.306 119.154L218.851 119.457H212.667C209.953 118.964 208.595 118.007 208.595 116.587V116.436C208.595 110.626 209.249 106.554 210.556 104.219C212.789 103.715 215.305 103.462 218.103 103.462ZM234.008 103.382H234.739C234.971 103.382 235.164 103.768 235.318 104.54C235.318 105.699 234.207 106.278 231.986 106.278L231.843 106.42H231.692C231.983 113.828 232.226 117.787 232.422 118.298C232.422 118.839 231.552 119.225 229.812 119.457H228.368C227.305 119.308 226.773 119.068 226.773 118.735C227.159 113.175 227.447 109.988 227.637 109.174V107.151L227.352 106.857C226.764 107.148 225.894 107.294 224.741 107.294L224.599 107.151V106.42C224.801 104.591 225.525 103.676 226.773 103.676C228.258 103.48 230.67 103.382 234.008 103.382ZM236.949 103.4H237.394C238.981 103.596 239.774 103.842 239.774 104.139V108.007C239.774 108.601 240.267 108.898 241.253 108.898L243.186 109.201C243.638 109.201 243.935 107.813 244.077 105.039C244.077 104.469 244.377 103.973 244.977 103.551C246.861 103.551 247.802 103.899 247.802 104.594L248.836 116.338V117.523L248.987 118.12C248.75 118.815 248.156 119.163 247.205 119.163H245.272C244.475 119.163 244.077 118.765 244.077 117.969V116.035C244.077 114.253 243.881 113.362 243.489 113.362C243.044 113.166 242.399 113.068 241.556 113.068H240.513L240.219 113.362V115.59L240.362 118.86C239.934 119.258 239.141 119.457 237.983 119.457H236.646C235.755 119.457 235.309 119.109 235.309 118.414V110.537C235.767 106.1 236.313 103.721 236.949 103.4ZM249.477 103.462H251.571C252.765 103.462 253.362 104.359 253.362 106.153L254.708 118.86V119.011C254.613 119.308 254.316 119.457 253.817 119.457H252.917C251.39 119.457 250.095 118.907 249.032 117.808V103.908L249.477 103.462ZM264.492 103.364H265.347C265.71 103.364 266.238 104.416 266.933 106.518V106.955C266.933 107.098 266.74 107.24 266.354 107.383L264.92 107.098C263.577 107.098 262.282 107.576 261.034 108.532V108.675C264.248 110.516 266.117 112.195 266.639 113.709C266.812 113.709 267.005 114.235 267.218 115.287C267.218 116.409 266.212 117.559 264.198 118.735C262.808 119.216 261.563 119.457 260.464 119.457H260.036C257.446 119.213 256.151 118.878 256.151 118.45C255.385 117.856 255.002 116.323 255.002 113.852L255.145 113.709H255.43C257.61 114.761 258.905 115.287 259.315 115.287H261.329L261.614 115.001V114.574C260.74 113.51 259.062 112.358 256.579 111.116L255.002 109.682V108.532C255.002 107.285 256.535 105.945 259.6 104.514C261.394 103.747 263.025 103.364 264.492 103.364ZM269.339 122.192H266.47L267.94 119.403L269.188 115.714H272.93L270.542 119.332L269.339 122.192ZM113.251 124.346H114.285C115.271 125.16 115.764 126.295 115.764 127.75C115.61 127.946 114.576 128.389 112.663 129.078C111.083 129.969 110.293 131.199 110.293 132.767C110.293 134.466 112.019 135.749 115.47 136.616L115.621 136.759V137.65C114.873 139.521 114.133 140.457 113.403 140.457C111.062 140.457 108.745 139.224 106.452 136.759C105.763 135.695 105.419 134.858 105.419 134.246V132.036C105.419 129.458 106.797 127.239 109.553 125.38C110.759 124.691 111.992 124.346 113.251 124.346ZM122.581 124.418H124.514C127.057 124.418 128.889 126.396 130.012 130.352L130.306 132.883C130.306 135.366 129.068 137.593 126.59 139.566C125.783 140.16 124.844 140.457 123.775 140.457C120.87 140.457 118.443 138.874 116.495 135.707C116.097 135.024 115.898 134.43 115.898 133.925V131.689C115.898 128.986 117.332 126.809 120.202 125.157L122.581 124.418ZM119.961 131.626C120.591 133.866 121.574 134.986 122.91 134.986H123.605C124.692 134.986 125.393 134.332 125.708 133.025V132.606C125.209 130.082 124.416 128.819 123.329 128.819H123.044C121.898 128.819 120.87 129.708 119.961 131.484V131.626ZM132.071 124.462H132.516C135.967 125.056 137.693 126.042 137.693 127.42L138.736 128.463L140.509 125.941C141.715 125.151 143.146 124.658 144.804 124.462H145.249C145.879 124.783 146.423 127.153 146.88 131.573V139.423C146.88 140.112 146.434 140.457 145.543 140.457H144.216C143.063 140.457 142.273 140.261 141.845 139.869L142.14 131.573C140.583 132.63 139.645 133.815 139.324 135.128L138.736 135.565H138.29L136.954 133.052C136.657 132.927 136.362 132.482 136.071 131.715C135.834 131.715 135.537 131.469 135.18 130.976V131.127L135.474 139.869C135.047 140.261 134.257 140.457 133.104 140.457H131.776C130.885 140.457 130.44 140.112 130.44 139.423V131.573C130.897 127.153 131.441 124.783 132.071 124.462ZM153.893 124.418H155.826C158.369 124.418 160.201 126.396 161.324 130.352L161.618 132.883C161.618 135.366 160.38 137.593 157.903 139.566C157.095 140.16 156.156 140.457 155.087 140.457C152.182 140.457 149.755 138.874 147.807 135.707C147.409 135.024 147.21 134.43 147.21 133.925V131.689C147.21 128.986 148.644 126.809 151.514 125.157L153.893 124.418ZM151.273 131.626C151.903 133.866 152.886 134.986 154.222 134.986H154.917C156.005 134.986 156.706 134.332 157.02 133.025V132.606C156.521 130.082 155.728 128.819 154.641 128.819H154.356C153.21 128.819 152.182 129.708 151.273 131.484V131.626ZM171.162 124.382H171.892C172.124 124.382 172.317 124.768 172.471 125.54C172.471 126.699 171.361 127.278 169.139 127.278L168.996 127.42H168.845C169.136 134.828 169.379 138.787 169.575 139.298C169.575 139.839 168.705 140.225 166.965 140.457H165.521C164.458 140.308 163.926 140.068 163.926 139.735C164.312 134.175 164.6 130.988 164.79 130.174V128.151L164.505 127.857C163.917 128.148 163.047 128.294 161.894 128.294L161.752 128.151V127.42C161.954 125.591 162.679 124.676 163.926 124.676C165.411 124.48 167.823 124.382 171.162 124.382ZM186.247 124.435H186.443C187.103 124.721 187.527 125.445 187.718 126.61L187.602 131.698L187.432 131.947L189.411 131.751L190.204 132.74V133.533L189.019 134.718H187.432V135.903L187.807 138.167L188.038 139.307C187.765 140.074 187.168 140.457 186.247 140.457H185.65C184.73 140.457 184.052 140.062 183.619 139.272C184.45 137.561 184.866 136.043 184.866 134.718H181.302C178.795 134.207 177.542 133.679 177.542 133.132V131.947C177.542 131.656 179.267 129.797 182.719 126.369C183.699 125.08 184.875 124.435 186.247 124.435ZM181.106 131.555L182.737 131.377L185.062 131.421V128.98L185.258 128.187L185.062 127.599L181.106 131.555ZM196.031 124.462H200.772C203.831 125.3 205.361 126.829 205.361 129.051C205.361 130.548 204.523 131.882 202.848 133.052V133.346C204.363 134.564 205.842 136.292 207.285 138.532V138.684C205.806 139.664 204.621 140.204 203.73 140.305L199.738 134.531L199.293 134.389L199.435 134.531L199.293 135.271V135.422L199.738 139.566C199.738 140.059 199.441 140.305 198.847 140.305V140.457C196.477 140.362 195.292 139.967 195.292 139.272L195.443 138.238V129.648L195.586 129.051L195.443 128.463C195.443 125.796 195.639 124.462 196.031 124.462ZM198.847 128.017L198.998 130.833L199.141 130.976H199.293C200.409 130.483 201.247 129.743 201.805 128.757V128.606C201.253 127.619 200.564 127.126 199.738 127.126H199.293C199.096 127.126 198.948 127.423 198.847 128.017ZM214.147 124.418H216.08C218.623 124.418 220.455 126.396 221.578 130.352L221.872 132.883C221.872 135.366 220.634 137.593 218.156 139.566C217.348 140.16 216.41 140.457 215.341 140.457C212.436 140.457 210.009 138.874 208.061 135.707C207.663 135.024 207.464 134.43 207.464 133.925V131.689C207.464 128.986 208.898 126.809 211.767 125.157L214.147 124.418ZM211.527 131.626C212.157 133.866 213.14 134.986 214.476 134.986H215.171C216.258 134.986 216.959 134.332 217.274 133.025V132.606C216.775 130.082 215.982 128.819 214.895 128.819H214.61C213.463 128.819 212.436 129.708 211.527 131.484V131.626ZM228.894 124.426H232.039C233.174 124.426 234.074 125.525 234.739 127.723C237.234 132.951 238.482 136.747 238.482 139.111C238.684 139.111 238.785 139.361 238.785 139.86L238.339 140.457L236.539 140.305H233.991C233.741 140.305 233.391 139.156 232.939 136.857L232.797 136.714C232.797 136.215 232.345 135.966 231.442 135.966C230.48 135.663 229.583 135.511 228.751 135.511C228.151 135.684 227.851 136.284 227.851 137.311C227.625 137.311 227.376 137.81 227.103 138.808C226.503 139.794 226.102 140.293 225.9 140.305H225L224.403 140.154L223.957 140.305C223.066 140.305 222.416 140.056 222.006 139.557V139.405C222.006 138.057 223.904 133.613 227.7 126.075C228.193 125.059 228.591 124.51 228.894 124.426ZM230.845 129.069L229.5 132.366V132.517C229.5 132.886 230.346 133.135 232.039 133.266L232.191 133.114V132.963L231.148 129.069H230.845ZM239.809 124.364H241.591L241.743 124.516L241.894 124.364H244.728C247.793 124.364 249.679 126.996 250.386 132.259V132.704C250.386 135.413 248.996 137.748 246.216 139.708C245.171 140.207 243.929 140.457 242.491 140.457C240.204 140.332 239.061 139.934 239.061 139.263L239.212 138.22V129.577L239.355 128.98L239.212 128.383C239.212 125.704 239.411 124.364 239.809 124.364ZM242.491 128.089C242.687 128.534 242.785 129.179 242.785 130.022V134.201L243.088 134.495H244.131C245.283 134.495 246.026 133.8 246.359 132.41V131.965C245.83 129.28 244.986 127.937 243.828 127.937H243.534L242.491 128.089Z" fill="#121212"/>
<defs>
<linearGradient id="paint0_linear_21_1259" x1="391.885" y1="457.943" x2="222.96" y2="555.594" gradientUnits="userSpaceOnUse">
<stop stop-color="#179D5D"/>
<stop offset="1" stop-color="#2CB774"/>
</linearGradient>
</defs>
</svg>
