<svg width="174" height="58" viewBox="0 0 174 58" fill="none" xmlns="http://www.w3.org/2000/svg">
<circle cx="28.6597" cy="29.2426" r="28.437" fill="#090008"/>
<circle cx="28.6603" cy="30.2788" r="17.4947" stroke="white" stroke-width="1.8898"/>
<circle cx="28.661" cy="30.2787" r="15.9218" fill="#0E0101"/>
<circle cx="28.6581" cy="30.2788" r="14.1445" fill="#D0BC03"/>
<circle cx="28.621" cy="30.2399" r="5.53991" fill="#031603"/>
<ellipse cx="21.3263" cy="23.1851" rx="1.53232" ry="3.39461" transform="rotate(-41.6713 21.3263 23.1851)" fill="#031603"/>
<ellipse cx="35.441" cy="23.0762" rx="1.53232" ry="3.39461" transform="rotate(45 35.441 23.0762)" fill="#031603"/>
<ellipse cx="35.4429" cy="37.4564" rx="1.53232" ry="3.39461" transform="rotate(135 35.4429 37.4564)" fill="#031603"/>
<ellipse cx="21.768" cy="37.0633" rx="1.53232" ry="3.39461" transform="rotate(-135 21.768 37.0633)" fill="#031603"/>
<path d="M90.9514 12.7716C93.0267 12.7716 94.0644 14.737 94.0644 18.6678V19.913C91.9647 23.2579 89.8894 26.0595 87.8385 28.3179C92.6117 32.2121 94.9982 35.5264 94.9982 38.2609V43.5345C94.9982 44.6454 93.4418 45.268 90.3289 45.4023C85.922 38.2975 83.0227 34.0493 81.631 32.6576V44.7797L80.6971 45.7136H79.452C73.8609 44.7003 71.0654 42.7349 71.0654 39.8173V39.506C71.0654 27.5183 72.4144 19.1256 75.1122 14.3281L80.6971 13.3942C81.1854 13.736 81.6005 15.7014 81.9423 19.2904L81.631 23.6485C86.1844 20.4501 88.4611 17.2396 88.4611 14.0168C89.3401 13.1867 90.1702 12.7716 90.9514 12.7716Z" fill="white"/>
<path d="M117.958 12.8449H119.496L120.43 13.4674C120.173 17.1907 119.551 19.0524 118.562 19.0524C112.165 19.6261 108.967 20.4501 108.967 21.5244V25.8825L109.882 26.1755C110.822 25.7726 112.165 25.5712 113.911 25.5712H116.401L117.335 26.4867V32.0717L116.401 33.0056H113.911C111.433 33.0056 110.194 32.798 110.194 32.383L108.967 32.6943V36.4114C108.967 37.6566 109.791 38.2792 111.439 38.2792L119.496 39.8173L120.43 45.091L119.496 45.7136H106.788C101.209 44.7003 98.4195 42.7349 98.4195 39.8173V39.506C98.4195 27.5671 99.7623 19.1989 102.448 14.4013C107.038 13.3637 112.208 12.8449 117.958 12.8449Z" fill="white"/>
<path d="M143.755 12.7716C145.83 12.7716 146.868 14.737 146.868 18.6678V19.913C144.768 23.2579 142.693 26.0595 140.642 28.3179C145.415 32.2121 147.802 35.5264 147.802 38.2609V43.5345C147.802 44.6454 146.246 45.268 143.133 45.4023C138.726 38.2975 135.826 34.0493 134.435 32.6576V44.7797L133.501 45.7136H132.256C126.665 44.7003 123.869 42.7349 123.869 39.8173V39.506C123.869 27.5183 125.218 19.1256 127.916 14.3281L133.501 13.3942C133.989 13.736 134.404 15.7014 134.746 19.2904L134.435 23.6485C138.988 20.4501 141.265 17.2396 141.265 14.0168C142.144 13.1867 142.974 12.7716 143.755 12.7716Z" fill="white"/>
<path d="M170.761 12.8449H172.3L173.233 13.4674C172.977 17.1907 172.354 19.0524 171.366 19.0524C164.969 19.6261 161.771 20.4501 161.771 21.5244V25.8825L162.686 26.1755C163.626 25.7726 164.969 25.5712 166.715 25.5712H169.205L170.139 26.4867V32.0717L169.205 33.0056H166.715C164.236 33.0056 162.997 32.798 162.997 32.383L161.771 32.6943V36.4114C161.771 37.6566 162.595 38.2792 164.243 38.2792L172.3 39.8173L173.233 45.091L172.3 45.7136H159.592C154.013 44.7003 151.223 42.7349 151.223 39.8173V39.506C151.223 27.5671 152.566 19.1989 155.252 14.4013C159.842 13.3637 165.012 12.8449 170.761 12.8449Z" fill="white"/>
</svg>
